

[img]http://img12.imageshack.us/img12/8558/grindstoneroadyolu2008d.jpg[/img]


A woman (Fairuza Balk) along with her husband moves into an old house where strange phenomena ocurs right after her son fall s into a comma. 



[IMG]http://img809.imageshack.us/img809/4215/bscap0007j.jpg[/IMG]
[IMG]http://img20.imageshack.us/img20/4518/bscap0006nn.jpg[/IMG]
[IMG]http://img293.imageshack.us/img293/2240/bscap0005rei.jpg[/IMG]
[IMG]http://img809.imageshack.us/img809/4634/bscap0002u.jpg[/IMG]
[IMG]http://img809.imageshack.us/img809/2002/bscap0001o.jpg[/IMG]
[IMG]http://img535.imageshack.us/img535/3893/grindstoneroad2008dvdri.jpg[/IMG]




General
Complete name                    : Grindstone Road 2008 DVDRip GoGoGrindstone Road 2008 DVDRip GoGo.avi
IMDB Link                        : [url]http://www.imdb.com/title/tt1187042/[/url]
Format                           : AVI
Format/Info                      : Audio Video Interleave
File size                        : 700 MiB
Duration                         : 1h 33mn
Overall bit rate                 : 1 049 Kbps
Writing application              : VirtualDubMod 1.5.4.1 (build 2178/release)
Writing library                  : VirtualDubMod build 2178/release

Video
ID                               : 0
Format                           : MPEG-4 Visual
Format profile                   : Advanced Simple@L5
Format settings, BVOP            : Yes
Format settings, QPel            : No
Format settings, GMC             : No warppoints
Format settings, Matrix          : Custom
Codec ID                         : XVID
Codec ID/Hint                    : XviD
Duration                         : 1h 33mn
Bit rate                         : 914 Kbps
Width                            : 720 pixels
Height                           : 416 pixels
Display aspect ratio             : 16:9
Frame rate                       : 23.976 fps
Color space                      : YUV
Chroma subsampling               : 4:2:0
Bit depth                        : 8 bits
Scan type                        : Progressive
Bits/(Pixel*Frame)               : 0.127
Stream size                      : 610 MiB (87%)
Writing library                  : XviD 1.1.2 (UTC 2006-11-01)

Audio
ID                               : 1
Format                           : MPEG Audio
Format version                   : Version 1
Format profile                   : Layer 3
Mode                             : Joint stereo
Codec ID                         : 55
Codec ID/Hint                    : MP3
Duration                         : 1h 33mn
Bit rate mode                    : Constant
Bit rate                         : 128 Kbps
Channel(s)                       : 2 channels
Sampling rate                    : 48.0 KHz
Video delay                      : 984ms
Stream size                      : 85.4 MiB (12%)
Alignment                        : Split accross interleaves
Interleave, duration             : 83 ms (2.00 video frames)
Interleave, preload duration     : 504 ms
Writing library                  : LAME3.97 
Encoding settings                : -m j -V 4 -q 2 -lowpass 17 -b 128
Language                         : English
Subtitles                        : None
Genre                            : Horror | Thriller 

[img]http://imgboot.com/images/fasamoo/pleaseseed.gif[/img]

